<?xml version="1.0" standalone="no"?>
<svg version="1.0" xmlns="http://www.w3.org/2000/svg"
 width="533.000000pt" height="532.000000pt" viewBox="0 0 533.000000 532.000000"
 preserveAspectRatio="xMidYMid meet">

<g transform="translate(0.000000,532.000000) scale(0.100000,-0.100000)"
fill="#2d57ff" stroke="none">
<path d="M2485 5314 c-740 -59 -1414 -404 -1868 -957 -331 -401 -528 -863
-598 -1397 -17 -124 -17 -468 0 -595 55 -428 198 -818 431 -1169 352 -533 890
-922 1505 -1091 651 -178 1325 -105 1932 210 404 210 741 517 1003 916 136
207 276 529 339 779 59 238 74 368 75 640 1 257 -6 338 -50 557 -112 557 -439
1108 -878 1477 -396 334 -855 538 -1373 611 -106 15 -420 27 -518 19z m740
-2884 l-900 -900 -567 567 -568 568 235 235 235 235 333 -333 332 -332 665
665 665 665 235 -235 235 -235 -900 -900z"/>
</g>
</svg>
